<svg id="Capa_2" data-name="Capa 2" xmlns="http://www.w3.org/2000/svg" viewBox="0 0 270 52"><defs>
<style>
    .cls-1{fill:#56667f;}
    .cls-2{fill:#00a9de;}
    .cls-3{fill:#335171;}
    .cls-4{fill:#DBDDE2;}<!-- #e8ebef -->
    .cls-5{fill:#3a5675;}
    .cls-6{font-size:12px;fill:#606060;font-family:CambriaMath, Cambria Math;letter-spacing:0.1em;}
    .cls-7{letter-spacing:0.09em;}
</style>
</defs><path class="cls-1" d="M47.65,25.27a1.25,1.25,0,0,1-1.26,1.26H44.14v2.25a1.27,1.27,0,0,1-2.54,0V26.53H39.35a1.26,1.26,0,0,1-1.27-1.26,1.28,1.28,0,0,1,.38-.9,1.23,1.23,0,0,1,.89-.37H41.6V21.75a1.27,1.27,0,0,1,1.27-1.27,1.23,1.23,0,0,1,.89.37,1.28,1.28,0,0,1,.38.9V24h2.25A1.26,1.26,0,0,1,47.65,25.27Z"/><path class="cls-2" d="M47.65,25a1.26,1.26,0,0,1-1.26,1.27H44.14V28.5a1.27,1.27,0,0,1-2.54,0V26.25H39.35A1.27,1.27,0,0,1,38.08,25a1.26,1.26,0,0,1,.38-.89,1.23,1.23,0,0,1,.89-.37H41.6V21.47a1.27,1.27,0,0,1,1.27-1.27,1.23,1.23,0,0,1,.89.37,1.28,1.28,0,0,1,.38.9v2.25h2.25A1.25,1.25,0,0,1,47.65,25Z"/><ellipse class="cls-3" cx="13.04" cy="26.53" rx="2.67" ry="2.23" transform="translate(-16.12 21.66) rotate(-54.34)"/><ellipse class="cls-2" cx="13.04" cy="26.25" rx="2.68" ry="2.23" transform="translate(-15.88 21.45) rotate(-54.16)"/><ellipse class="cls-3" cx="9.52" cy="20.06" rx="2.68" ry="2.08" transform="translate(-12.58 17.9) rotate(-59.03)"/><ellipse class="cls-2" cx="9.52" cy="19.5" rx="2.71" ry="2.04" transform="matrix(0.54, -0.84, 0.84, 0.54, -12.04, 17.05)"/><ellipse class="cls-3" cx="6.14" cy="27.52" rx="2.55" ry="2.07" transform="translate(-19.61 16.04) rotate(-53.39)"/><ellipse class="cls-2" cx="6.14" cy="26.81" rx="2.68" ry="2.07" transform="translate(-19.97 18.15) rotate(-58.75)"/><path class="cls-4" d="M1.7,28.2s2.75,14.09,15.14.3H33.72v2L19,30.61S9.68,44.3,2.78,33.94"/><path class="cls-4" d="M45,37.37c7.88.84,7.6-7.6,7.6-7.6V25l-.28-.28-1.69.57v5.62s-1.13,6.76-5.91,6.48"/><path class="cls-2" d="M27.67,51.86A25.78,25.78,0,0,1,4.17,37.61c8.72,4,14.92-4.61,14.92-4.61H34.85s7.31,9.7,14.77,5.42l.42-.25S43,51.86,27.67,51.86Z"/><path class="cls-5" d="M2.29,20.62s3.57-18.57,25-20V15.27H20.78S12.13,4.15,2.24,20.83"/><path class="cls-5" d="M28.66.62V15.33h6.19S42.7,4.87,52.56,22C52.56,22,49.49,2.24,28.66.62Z"/><path class="cls-5" d="M66,30.62v-.81c1.53-.21,1.6-.46,1.26-1.45-.26-.8-.68-1.92-1.09-3.07H61.31c-.3.86-.65,1.78-.92,2.61-.51,1.52,0,1.72,1.9,1.91v.81H56.5v-.81c1.51-.19,1.89-.39,2.72-2.46l5-12.47,1-.19c1.53,4.15,3.17,8.51,4.71,12.57.85,2.18,1.06,2.36,2.67,2.55v.81ZM63.79,18.69c-.72,1.84-1.44,3.65-2.09,5.46h4.06Z"/><path class="cls-5" d="M86.22,30.62v-.81c1.88-.19,2-.35,2-2.65V17.64c-1.82,4.22-4.16,9.59-5.58,13h-.73c-1.3-3.31-3.36-8.52-5.12-12.77-.34,7.84-.35,9.47-.35,10.19,0,1.32.55,1.6,2.29,1.77v.81H72.84v-.81c1.37-.13,2-.4,2.17-1.79.12-.84.19-2,.76-10.24.08-1.19-.11-1.75-2.19-2V15h4.83l4.87,11.14L88.3,15h4.76v.81c-2,.21-2.21.41-2.16,2.25l.16,9.08c0,2.3.14,2.4,2.14,2.65v.81Z"/><path class="cls-5" d="M103.44,30.62v-.81c1.53-.21,1.6-.46,1.26-1.45-.26-.8-.68-1.92-1.09-3.07H98.75c-.3.86-.65,1.78-.92,2.61-.51,1.52,0,1.72,1.9,1.91v.81h-5.8v-.81c1.52-.19,1.9-.39,2.73-2.46l5-12.47,1-.19c1.52,4.15,3.17,8.51,4.71,12.57.84,2.18,1.06,2.36,2.67,2.55v.81Zm-2.21-11.93c-.72,1.84-1.44,3.65-2.09,5.46h4Z"/><path class="cls-5" d="M125.28,26.3c-.17.88-.81,3.42-1,4.32H111.5l-.18-.47c3.07-4.47,6.34-9.36,9.46-14.06h-4.06c-1.87,0-2.26.21-2.76,1a10.39,10.39,0,0,0-.95,2.05l-.84,0c.13-1.39.39-3.62.45-4.67h.77c.28.57.6.58,1.32.58h9.69l.18.42c-3.07,4.57-6.22,9.27-9.33,14.06.78.06,1.78.07,3.33.07,3,0,3.51-.09,4.19-.77a8.6,8.6,0,0,0,1.67-2.7Z"/><path class="cls-5" d="M126.82,30.62v-.81c1.87-.18,2.08-.31,2.08-2.34V18.19c0-2-.22-2.19-2.08-2.36V15h7.07v.81c-1.87.19-2.09.33-2.09,2.36v9.28c0,2,.21,2.14,2.09,2.34v.81Z"/><path class="cls-5" d="M152.73,15.83c-1.48.19-2,.47-2,1.56,0,.88-.12,1.76-.12,3.9v9.58h-1.19l-10.1-12.19V24.3c0,2.12.05,3.1.12,3.8.08,1.11.61,1.6,2.37,1.71v.81h-5.91v-.81c1.41-.12,2-.48,2.13-1.62a35,35,0,0,0,.14-3.9V18.45a2.56,2.56,0,0,0-.5-1.81c-.44-.6-1-.7-2.06-.81V15h4.31l9.5,11.14V21.29c0-2.14,0-3-.1-3.84-.07-1.05-.52-1.5-2.48-1.62V15h5.92Z"/><path class="cls-5" d="M170.36,24.05c-1.41.23-1.55.34-1.55,1.9v1.9a13.56,13.56,0,0,0,.14,2.32,32.06,32.06,0,0,1-5.68.81c-5.57,0-8.84-3.41-8.84-8.19,0-5.28,4.3-8.1,9.3-8.1a33.45,33.45,0,0,1,4.9.56c.05,1,.22,2.7.39,4.09l-.86.16c-.57-2-1.39-3-2.89-3.52a7.57,7.57,0,0,0-2.11-.3c-3.17,0-5.42,2.52-5.42,6.74S159.4,30,163.58,30a3.66,3.66,0,0,0,1.72-.36c.41-.24.64-.6.64-1.43V26.15c0-1.7-.29-1.88-2.4-2.1v-.82h6.82Z"/><path class="cls-5" d="M186.3,18.87c-.45-1.55-1.13-3.24-3.35-3.24a2.28,2.28,0,0,0-2.38,2.43c0,1.44,1,2.25,3,3.3,2.67,1.35,4.17,2.54,4.17,4.89,0,2.72-2.29,4.73-5.61,4.73a12.38,12.38,0,0,1-3.9-.76c-.16-.59-.53-2.79-.7-4l.87-.21c.48,1.54,1.72,4,4.13,4a2.36,2.36,0,0,0,2.5-2.56c0-1.55-.91-2.34-3-3.45-2.5-1.35-4.06-2.53-4.06-4.94s1.9-4.38,5.35-4.38a16.84,16.84,0,0,1,3.34.44c.1.88.24,2,.43,3.55Z"/><path class="cls-5" d="M204.61,26.6a33.13,33.13,0,0,1-1.34,3.78,21.4,21.4,0,0,1-4.41.6c-6.2,0-9-4-9-8,0-4.95,3.77-8.31,9.4-8.31a25,25,0,0,1,4.53.56c.11,1.11.28,2.77.46,3.88l-.89.17c-.49-1.78-1.16-2.7-2.42-3.21a6.16,6.16,0,0,0-2.24-.38c-3.64,0-5.51,2.92-5.51,6.75,0,4.48,2.3,7.45,5.8,7.45,2.17,0,3.46-1.08,4.73-3.63Z"/><path class="cls-5" d="M221.53,30.78l-.78,0c-2.59-.13-3.5-.72-4.34-1.89s-1.69-2.77-2.49-4.13c-.4-.69-.73-.84-1.65-.84h-.61v3.59c0,2,.25,2.13,2.09,2.34v.81h-7v-.81c1.89-.2,2.09-.36,2.09-2.34V18.15c0-1.95-.25-2.15-2.09-2.32V15h6.67a7.11,7.11,0,0,1,4.17.88,3.63,3.63,0,0,1,1.62,3.18c0,2.11-1.39,3.3-3,4,.39.72,1.36,2.3,2.08,3.4a19.21,19.21,0,0,0,1.85,2.48A3.15,3.15,0,0,0,221.67,30Zm-9-7.83a3.66,3.66,0,0,0,2.45-.65,3.4,3.4,0,0,0,1.19-2.86c0-2.55-1.54-3.47-3.07-3.47a1.83,1.83,0,0,0-1.16.24c-.18.15-.24.42-.24.95V23Z"/><path class="cls-5" d="M235.43,26.63c-.13.64-.79,3.3-1,4H222.23v-.79c2.2-.2,2.35-.36,2.35-2.36V18.2c0-2.08-.28-2.21-2-2.37V15h7.64c2.43,0,3.31,0,3.63,0,0,.49.13,2.4.23,3.82l-.86.12a6.27,6.27,0,0,0-.93-2.09c-.41-.59-.81-.75-2.11-.75H228.4c-.85,0-.93.06-.93.84V22h2.46c1.5,0,1.7-.36,2-2h.86v5.21H232c-.36-1.76-.55-2-2.06-2h-2.44v4.36c0,1.66.21,2,1.6,2.06H231c1.39,0,1.7-.18,2.23-.82a10.71,10.71,0,0,0,1.41-2.33Z"/><path class="cls-5" d="M249.85,26.63c-.13.64-.79,3.3-1,4H236.65v-.79c2.21-.2,2.36-.36,2.36-2.36V18.2c0-2.08-.28-2.21-2-2.37V15h7.64c2.43,0,3.3,0,3.62,0,0,.49.14,2.4.23,3.82l-.86.12a6.48,6.48,0,0,0-.92-2.09c-.42-.59-.81-.75-2.11-.75h-1.82c-.85,0-.93.06-.93.84V22h2.46c1.51,0,1.71-.36,2-2h.87v5.21h-.87c-.36-1.76-.55-2-2.06-2h-2.44v4.36c0,1.66.22,2,1.61,2.06h1.88c1.39,0,1.71-.18,2.24-.82a10.68,10.68,0,0,0,1.4-2.33Z"/><path class="cls-5" d="M268,15.83c-1.49.19-2,.47-2,1.56-.05.88-.11,1.76-.11,3.9v9.58h-1.2l-10.1-12.19V24.3c0,2.12.06,3.1.12,3.8.08,1.11.62,1.6,2.38,1.71v.81h-5.91v-.81c1.41-.12,2-.48,2.13-1.62a38.79,38.79,0,0,0,.13-3.9V18.45a2.6,2.6,0,0,0-.49-1.81c-.44-.6-1-.7-2.06-.81V15h4.3l9.51,11.14V21.29c0-2.14,0-3-.11-3.84-.07-1.05-.51-1.5-2.48-1.62V15H268Z"/><text class="cls-6" transform="translate(138.43 46.17)">A<tspan class="cls-7" x="8.68" y="0">r</tspan><tspan x="14.76" y="0">gentina</tspan></text></svg>