<svg id="Capa_2" data-name="Capa 2" xmlns="http://www.w3.org/2000/svg" xmlns:xlink="http://www.w3.org/1999/xlink" viewBox="0 0 283 54"><defs><style>.cls-1{fill:none;}.cls-2{fill:#00a9de;}.cls-3{fill:#111010;}.cls-4{isolation:isolate;}.cls-5{clip-path:url(#clip-path);}.cls-6{fill:#006281;}.cls-7{fill:#005f7c;}.cls-8{fill:#005b78;}.cls-9{fill:#005873;}.cls-10{fill:#00556f;}.cls-11{clip-path:url(#clip-path-2);}.cls-12{clip-path:url(#clip-path-3);}.cls-13{fill:#0099c9;}.cls-14{clip-path:url(#clip-path-4);}.cls-15{clip-path:url(#clip-path-5);}.cls-16{clip-path:url(#clip-path-6);}.cls-17{fill:#e8ebef;}.cls-18{fill:#3a5675;}.cls-19{fill:#11b8e4;}.cls-20{font-size:5.92px;fill:#fff;font-family:Constantia;}.cls-21{letter-spacing:-0.01em;}</style><clipPath id="clip-path"><path class="cls-1" d="M47.57,24.63v1.12A1.26,1.26,0,0,1,46.29,27V25.88A1.26,1.26,0,0,0,47.57,24.63Z"/></clipPath><clipPath id="clip-path-2"><path class="cls-1" d="M39.14,25.88V27a1.27,1.27,0,0,1-1.29-1.26V24.63A1.27,1.27,0,0,0,39.14,25.88Z"/></clipPath><clipPath id="clip-path-3"><path class="cls-1" d="M44,28.11v1.13a1.29,1.29,0,0,1-2.57,0V28.11a1.29,1.29,0,0,0,2.57,0Z"/></clipPath><clipPath id="clip-path-4"><path class="cls-1" d="M15.54,25.56v1.12a3,3,0,0,1-2.85,2.94,2,2,0,0,1-1.06-.29,2,2,0,0,1-1-1.79V26.42a2,2,0,0,0,1,1.79,2.08,2.08,0,0,0,1.06.28,3,3,0,0,0,2.85-2.93Z"/></clipPath><clipPath id="clip-path-5"><path class="cls-1" d="M11.83,18.67V19.8a3.21,3.21,0,0,1-.54,1.71A3,3,0,0,1,9,22.94a1.7,1.7,0,0,1-.9-.25,1.86,1.86,0,0,1-.81-1.63V19.94a1.86,1.86,0,0,0,.81,1.63,1.78,1.78,0,0,0,.9.24,3,3,0,0,0,2.33-1.42A3.24,3.24,0,0,0,11.83,18.67Z"/></clipPath><clipPath id="clip-path-6"><path class="cls-1" d="M8.4,26v1.13a3.05,3.05,0,0,1-.52,1.66,2.84,2.84,0,0,1-2.28,1.4,1.76,1.76,0,0,1-.94-.26,1.9,1.9,0,0,1-.83-1.67V27.11a1.91,1.91,0,0,0,.83,1.68,1.85,1.85,0,0,0,.94.26,2.86,2.86,0,0,0,2.28-1.4A3.11,3.11,0,0,0,8.4,26Z"/></clipPath></defs><path class="cls-2" d="M59.84,31.45V31c.94-.13,1-.29.78-.9s-.42-1.18-.68-1.89H57c-.19.53-.4,1.1-.57,1.61-.32.94,0,1.06,1.17,1.18v.5H54V31c.93-.12,1.17-.24,1.68-1.51l3.06-7.68.63-.12c.94,2.55,2,5.24,2.9,7.74.52,1.34.65,1.45,1.64,1.57v.5ZM58.48,24.1c-.44,1.14-.89,2.25-1.28,3.36h2.49Z"/><path class="cls-2" d="M72.29,31.45V31c1.15-.12,1.22-.22,1.21-1.64V23.46c-1.12,2.6-2.56,5.9-3.43,8h-.45c-.8-2-2.07-5.24-3.15-7.86-.22,4.82-.22,5.83-.22,6.27,0,.81.33,1,1.41,1.09v.5H64.05V31c.85-.08,1.22-.25,1.34-1.1.07-.52.11-1.25.47-6.31,0-.73-.07-1.08-1.35-1.19v-.5h3l3,6.85,3.08-6.85h2.93v.5c-1.21.13-1.35.25-1.32,1.38l.1,5.58c0,1.42.08,1.49,1.31,1.64v.5Z"/><path class="cls-2" d="M82.89,31.45V31c.94-.13,1-.29.77-.9s-.42-1.18-.67-1.89H80c-.19.53-.4,1.1-.57,1.61-.31.94,0,1.06,1.17,1.18v.5H77V31c.93-.12,1.17-.24,1.67-1.51l3.07-7.68.63-.12c.94,2.55,2,5.24,2.9,7.74C85.83,30.72,86,30.83,87,31v.5ZM81.53,24.1c-.45,1.14-.89,2.25-1.29,3.36h2.5Z"/><path class="cls-2" d="M96.33,28.79c-.1.54-.5,2.1-.63,2.66H87.85l-.11-.3c1.89-2.75,3.9-5.75,5.82-8.65h-2.5c-1.15,0-1.39.13-1.7.62a6.71,6.71,0,0,0-.58,1.26l-.52,0c.09-.85.24-2.22.28-2.87H89c.18.35.37.36.82.36h6l.11.25c-1.89,2.82-3.83,5.71-5.74,8.65.48,0,1.09.05,2,.05,1.82,0,2.16-.06,2.58-.47a5.33,5.33,0,0,0,1-1.66Z"/><path class="cls-2" d="M97.28,31.45V31c1.15-.12,1.28-.19,1.28-1.44V23.8c0-1.25-.14-1.35-1.28-1.45v-.5h4.35v.5c-1.15.11-1.29.2-1.29,1.45v5.71c0,1.24.13,1.31,1.29,1.44v.5Z"/><path class="cls-2" d="M113.23,22.35c-.92.11-1.21.29-1.25,1s-.07,1.08-.07,2.4V31.6h-.74L105,24.1v3.46c0,1.3,0,1.91.07,2.33,0,.69.38,1,1.46,1.06v.5h-3.64V31c.87-.08,1.24-.3,1.31-1a20.07,20.07,0,0,0,.09-2.4V24a1.57,1.57,0,0,0-.31-1.12c-.27-.37-.61-.43-1.26-.49v-.5h2.64l5.85,6.85v-3c0-1.32,0-1.86-.06-2.37s-.32-.92-1.53-1v-.5h3.65Z"/><path class="cls-2" d="M124.08,27.41c-.87.13-1,.2-1,1.16v1.17a8.84,8.84,0,0,0,.08,1.43,19.18,19.18,0,0,1-3.49.5c-3.43,0-5.44-2.1-5.44-5,0-3.25,2.64-5,5.72-5a20.38,20.38,0,0,1,3,.35c0,.61.13,1.66.24,2.51l-.53.1A2.71,2.71,0,0,0,121,22.44a4.59,4.59,0,0,0-1.3-.19c-2,0-3.34,1.55-3.34,4.15s1,4.67,3.6,4.67a2.2,2.2,0,0,0,1-.23c.26-.15.4-.37.4-.88V28.7c0-1.05-.17-1.16-1.48-1.29V26.9h4.2Z"/><path class="cls-2" d="M133.9,24.22c-.28-1-.7-2-2.07-2a1.4,1.4,0,0,0-1.46,1.5c0,.88.58,1.38,1.85,2,1.65.83,2.57,1.56,2.57,3,0,1.68-1.41,2.92-3.45,2.92a7.52,7.52,0,0,1-2.4-.47c-.1-.36-.33-1.71-.43-2.45l.54-.12c.29.95,1.06,2.44,2.53,2.44a1.45,1.45,0,0,0,1.55-1.57c0-.95-.56-1.44-1.82-2.12-1.54-.83-2.5-1.56-2.5-3s1.17-2.7,3.29-2.7a10.43,10.43,0,0,1,2.06.27c.05.54.14,1.25.26,2.19Z"/><path class="cls-2" d="M145.16,29a19.38,19.38,0,0,1-.82,2.33,13.63,13.63,0,0,1-2.71.37c-3.82,0-5.52-2.48-5.52-4.91,0-3.05,2.32-5.12,5.78-5.12a15.07,15.07,0,0,1,2.8.35c.06.68.17,1.7.28,2.39l-.55.1a2.51,2.51,0,0,0-1.49-2,3.77,3.77,0,0,0-1.38-.24c-2.24,0-3.39,1.8-3.39,4.16,0,2.75,1.42,4.58,3.57,4.58,1.33,0,2.13-.66,2.91-2.24Z"/><path class="cls-2" d="M155.58,31.55l-.48,0c-1.6-.09-2.15-.44-2.67-1.17s-1-1.7-1.53-2.54c-.25-.43-.45-.51-1-.51h-.37v2.21c0,1.22.15,1.31,1.28,1.44v.5h-4.31V31c1.15-.13,1.28-.22,1.28-1.44V23.77c0-1.2-.16-1.32-1.28-1.42v-.5h4.1a4.36,4.36,0,0,1,2.56.54,2.23,2.23,0,0,1,1,2,2.58,2.58,0,0,1-1.87,2.44c.24.45.83,1.42,1.28,2.09a11.25,11.25,0,0,0,1.14,1.54,2,2,0,0,0,1,.66ZM150,26.73a2.23,2.23,0,0,0,1.51-.4,2.09,2.09,0,0,0,.74-1.76,1.86,1.86,0,0,0-1.89-2.14c-.41,0-.62.06-.71.15s-.15.26-.15.59v3.56Z"/><path class="cls-2" d="M164.14,29c-.08.4-.49,2-.63,2.46H156V31c1.36-.13,1.45-.22,1.45-1.45V23.8c0-1.28-.17-1.36-1.21-1.45v-.5H161c1.5,0,2,0,2.23,0,0,.3.08,1.47.14,2.34l-.53.08a3.88,3.88,0,0,0-.56-1.29c-.26-.36-.5-.45-1.3-.45h-1.12c-.52,0-.57,0-.57.51v3.15h1.51c.93,0,1.05-.23,1.26-1.26h.53v3.21H162c-.23-1.09-.34-1.25-1.27-1.25h-1.5v2.68c0,1,.13,1.25,1,1.27h1.17c.85,0,1.05-.11,1.37-.51a6.25,6.25,0,0,0,.86-1.43Z"/><path class="cls-2" d="M173,29c-.07.4-.48,2-.62,2.46h-7.5V31c1.36-.13,1.45-.22,1.45-1.45V23.8c0-1.28-.17-1.36-1.21-1.45v-.5h4.7c1.5,0,2,0,2.23,0,0,.3.08,1.47.14,2.34l-.53.08A3.87,3.87,0,0,0,171.1,23c-.25-.36-.49-.45-1.29-.45h-1.12c-.52,0-.57,0-.57.51v3.15h1.51c.93,0,1.05-.23,1.25-1.26h.54v3.21h-.54c-.22-1.09-.33-1.25-1.26-1.25h-1.5v2.68c0,1,.13,1.25,1,1.27h1.17c.85,0,1-.11,1.37-.51a6.25,6.25,0,0,0,.86-1.43Z"/><path class="cls-2" d="M184.2,22.35c-.91.11-1.2.29-1.25,1s-.07,1.08-.07,2.4V31.6h-.74l-6.21-7.5v3.46c0,1.3,0,1.91.07,2.33.05.69.38,1,1.46,1.06v.5h-3.63V31c.86-.08,1.23-.3,1.31-1a23.54,23.54,0,0,0,.08-2.4V24a1.62,1.62,0,0,0-.3-1.12c-.28-.37-.61-.43-1.27-.49v-.5h2.65l5.85,6.85v-3c0-1.32,0-1.86-.07-2.37s-.31-.92-1.52-1v-.5h3.64Z"/><path class="cls-2" d="M190.52,24.22c-.28-1-.69-2-2.06-2a1.4,1.4,0,0,0-1.46,1.5c0,.88.58,1.38,1.85,2,1.65.83,2.57,1.56,2.57,3,0,1.68-1.41,2.92-3.45,2.92a7.52,7.52,0,0,1-2.4-.47c-.1-.36-.33-1.71-.43-2.45l.53-.12c.3.95,1.06,2.44,2.54,2.44a1.45,1.45,0,0,0,1.54-1.57c0-.95-.55-1.44-1.82-2.12-1.54-.83-2.49-1.56-2.49-3s1.16-2.7,3.29-2.7a10.29,10.29,0,0,1,2.05.27c.06.54.15,1.25.27,2.19Z"/><path class="cls-2" d="M200.93,31.45V31c.94-.13,1-.29.78-.9s-.43-1.18-.68-1.89h-3c-.19.53-.4,1.1-.57,1.61-.31.94,0,1.06,1.17,1.18v.5h-3.56V31c.93-.12,1.17-.24,1.67-1.51l3.07-7.68.63-.12c.94,2.55,2,5.24,2.9,7.74.52,1.34.65,1.45,1.64,1.57v.5Zm-1.36-7.35c-.45,1.14-.89,2.25-1.29,3.36h2.5Z"/><path class="cls-2" d="M214.66,31.55l-.48,0c-1.6-.09-2.15-.44-2.67-1.17s-1-1.7-1.53-2.54c-.25-.43-.45-.51-1-.51h-.37v2.21c0,1.22.15,1.31,1.28,1.44v.5h-4.32V31c1.16-.13,1.29-.22,1.29-1.44V23.77c0-1.2-.16-1.32-1.29-1.42v-.5h4.11a4.36,4.36,0,0,1,2.56.54,2.23,2.23,0,0,1,1,2,2.58,2.58,0,0,1-1.87,2.44c.24.45.83,1.42,1.28,2.09a12.36,12.36,0,0,0,1.13,1.54,2.06,2.06,0,0,0,1,.66Zm-5.57-4.82a2.23,2.23,0,0,0,1.51-.4,2.09,2.09,0,0,0,.74-1.76,1.86,1.86,0,0,0-1.89-2.14,1.12,1.12,0,0,0-.72.15c-.11.09-.14.26-.14.59v3.56Z"/><path class="cls-2" d="M225,27.41c-.87.13-1,.2-1,1.16v1.17a8.75,8.75,0,0,0,.09,1.43,19.18,19.18,0,0,1-3.49.5c-3.43,0-5.44-2.1-5.44-5,0-3.25,2.64-5,5.72-5a20.38,20.38,0,0,1,3,.35c0,.61.13,1.66.24,2.51l-.53.1a2.71,2.71,0,0,0-1.78-2.16,4.59,4.59,0,0,0-1.3-.19c-1.95,0-3.34,1.55-3.34,4.15s1,4.67,3.6,4.67a2.2,2.2,0,0,0,1-.23c.26-.15.4-.37.4-.88V28.7c0-1.05-.18-1.16-1.48-1.29V26.9H225Z"/><path class="cls-2" d="M234,29c-.08.4-.48,2-.62,2.46h-7.5V31c1.36-.13,1.45-.22,1.45-1.45V23.8c0-1.28-.17-1.36-1.21-1.45v-.5h4.7c1.49,0,2,0,2.23,0,0,.3.08,1.47.14,2.34l-.53.08a3.87,3.87,0,0,0-.57-1.29c-.25-.36-.5-.45-1.3-.45h-1.11c-.53,0-.57,0-.57.51v3.15h1.51c.93,0,1.05-.23,1.25-1.26h.54v3.21h-.54c-.22-1.09-.34-1.25-1.26-1.25h-1.5v2.68c0,1,.13,1.25,1,1.27h1.16c.86,0,1.05-.11,1.38-.51a6.25,6.25,0,0,0,.86-1.43Z"/><path class="cls-2" d="M245.23,22.35c-.91.11-1.2.29-1.25,1s-.07,1.08-.07,2.4V31.6h-.74L237,24.1v3.46c0,1.3,0,1.91.07,2.33.05.69.38,1,1.46,1.06v.5h-3.63V31c.86-.08,1.23-.3,1.31-1a23.54,23.54,0,0,0,.08-2.4V24a1.62,1.62,0,0,0-.3-1.12c-.28-.37-.61-.43-1.27-.49v-.5h2.65l5.85,6.85v-3c0-1.32,0-1.86-.07-2.37s-.31-.92-1.53-1v-.5h3.65Z"/><path class="cls-2" d="M254.45,24.32a4.85,4.85,0,0,0-.58-1.37c-.26-.34-.38-.45-1.23-.45H251.5v7c0,1.2.14,1.32,1.49,1.42v.5h-4.7V31c1.3-.1,1.43-.21,1.43-1.42v-7h-1.06c-.82,0-1,.11-1.33.5a5.86,5.86,0,0,0-.56,1.33h-.52c.1-1,.2-2.09.23-2.84h.41c.22.34.39.36.83.36h5.88a.88.88,0,0,0,.82-.36h.41c0,.64.06,1.86.14,2.79Z"/><path class="cls-2" d="M256.07,31.45V31c1.15-.12,1.28-.19,1.28-1.44V23.8c0-1.25-.14-1.35-1.28-1.45v-.5h4.35v.5c-1.15.11-1.29.2-1.29,1.45v5.71c0,1.24.13,1.31,1.29,1.44v.5Z"/><path class="cls-2" d="M272,22.35c-.92.11-1.21.29-1.25,1s-.08,1.08-.08,2.4V31.6H270l-6.22-7.5v3.46c0,1.3,0,1.91.08,2.33,0,.69.38,1,1.46,1.06v.5h-3.64V31c.87-.08,1.23-.3,1.31-1a20.83,20.83,0,0,0,.08-2.4V24a1.57,1.57,0,0,0-.3-1.12c-.27-.37-.61-.43-1.27-.49v-.5h2.65L270,28.7v-3c0-1.32,0-1.86-.06-2.37s-.32-.92-1.53-1v-.5H272Z"/><path class="cls-2" d="M277.93,31.45V31c.94-.13,1-.29.77-.9s-.42-1.18-.67-1.89h-3c-.19.53-.4,1.1-.57,1.61-.31.94,0,1.06,1.17,1.18v.5h-3.56V31c.93-.12,1.17-.24,1.67-1.51l3.07-7.68.63-.12c.94,2.55,1.95,5.24,2.9,7.74.52,1.34.65,1.45,1.64,1.57v.5Zm-1.36-7.35c-.45,1.14-.89,2.25-1.29,3.36h2.5Z"/><circle class="cls-3" cx="27.11" cy="26.93" r="26.07"/><g class="cls-4"><g class="cls-4"><g class="cls-5"><g class="cls-4"><path class="cls-6" d="M47.57,24.63v1.12a1.15,1.15,0,0,1,0,.33V25a1.24,1.24,0,0,0,0-.33"/><path class="cls-7" d="M47.53,25v1.12a1,1,0,0,1-.11.28V25.23a.9.9,0,0,0,.11-.27"/><path class="cls-8" d="M47.42,25.23v1.13a1.44,1.44,0,0,1-.18.25V25.48a1.14,1.14,0,0,0,.18-.25"/><path class="cls-9" d="M47.24,25.48v1.13a1.35,1.35,0,0,1-1,.4V25.88a1.31,1.31,0,0,0,1-.4"/></g></g></g><rect class="cls-10" x="44" y="25.88" width="2.29" height="1.12"/><rect class="cls-10" x="39.14" y="25.88" width="2.29" height="1.12"/><g class="cls-4"><g class="cls-11"><g class="cls-4"><path class="cls-9" d="M39.14,25.88V27a1.27,1.27,0,0,1-1.29-1.26V24.63a1.27,1.27,0,0,0,1.29,1.25"/></g></g></g><g class="cls-4"><g class="cls-12"><g class="cls-4"><path class="cls-6" d="M44,28.11v1.13a1.12,1.12,0,0,1,0,.32V28.43a1.12,1.12,0,0,0,0-.32"/><path class="cls-7" d="M44,28.43v1.13a1.69,1.69,0,0,1-.11.27V28.71a2.33,2.33,0,0,0,.11-.28"/><path class="cls-8" d="M43.85,28.71v1.12a1.24,1.24,0,0,1-.19.26V29a1.18,1.18,0,0,0,.19-.25"/><path class="cls-9" d="M43.66,29v1.13a1.31,1.31,0,0,1-.94.4,1.27,1.27,0,0,1-1.29-1.25V28.11a1.29,1.29,0,0,0,2.23.85"/></g></g></g><path class="cls-13" d="M42.72,19.9a1.27,1.27,0,0,1,.9.37,1.2,1.2,0,0,1,.38.89v2.22h2.29a1.25,1.25,0,1,1,0,2.5H44v2.23a1.29,1.29,0,0,1-2.57,0V25.88H39.14a1.27,1.27,0,0,1-1.29-1.25,1.23,1.23,0,0,1,.38-.88,1.31,1.31,0,0,1,.91-.37h2.29V21.16A1.27,1.27,0,0,1,42.72,19.9Z"/></g><g class="cls-4"><g class="cls-4"><g class="cls-14"><g class="cls-4"><path class="cls-6" d="M15.54,25.56v1.12a2.8,2.8,0,0,1-.09.7V26.26a2.86,2.86,0,0,0,.09-.7"/><path class="cls-7" d="M15.45,26.26v1.12a2.58,2.58,0,0,1-.28.67V26.93a2.73,2.73,0,0,0,.28-.67"/><path class="cls-8" d="M15.17,26.93v1.12a1.59,1.59,0,0,1-.13.22,2.93,2.93,0,0,1-.34.43V27.57a3.47,3.47,0,0,0,.34-.42l.13-.22"/><path class="cls-9" d="M14.7,27.57V28.7a2.83,2.83,0,0,1-2,.92,2,2,0,0,1-1.06-.29,2,2,0,0,1-1-1.79V26.42a2,2,0,0,0,1,1.79,2.08,2.08,0,0,0,1.06.28,2.83,2.83,0,0,0,2-.92"/></g></g></g><path class="cls-13" d="M13.53,23.48a2,2,0,0,1,1.06.29A2.34,2.34,0,0,1,15,27.15a2.91,2.91,0,0,1-2.35,1.34,2.08,2.08,0,0,1-1.06-.28,2.36,2.36,0,0,1-.44-3.39A2.91,2.91,0,0,1,13.53,23.48Z"/></g><g class="cls-4"><g class="cls-4"><g class="cls-15"><g class="cls-4"><path class="cls-6" d="M11.83,18.67V19.8a3.37,3.37,0,0,1-.1.75V19.42a3.29,3.29,0,0,0,.1-.75"/><path class="cls-7" d="M11.73,19.42v1.13a3.63,3.63,0,0,1-.31.74V20.17a4,4,0,0,0,.31-.75"/><path class="cls-8" d="M11.42,20.17v1.12c0,.08-.09.15-.13.22a4,4,0,0,1-.4.5V20.89a4,4,0,0,0,.4-.5c0-.08.09-.15.13-.22"/><path class="cls-9" d="M10.89,20.89V22A2.76,2.76,0,0,1,9,22.94a1.7,1.7,0,0,1-.9-.25,1.86,1.86,0,0,1-.81-1.63V19.94a1.86,1.86,0,0,0,.81,1.63,1.78,1.78,0,0,0,.9.24,2.75,2.75,0,0,0,1.93-.92"/></g></g></g><path class="cls-13" d="M10.12,16.8A1.76,1.76,0,0,1,11,17c1,.6,1.09,2.09.27,3.35A3,3,0,0,1,9,21.81a1.78,1.78,0,0,1-.9-.24c-1-.6-1.08-2.1-.27-3.34A2.92,2.92,0,0,1,10.12,16.8Z"/></g><g class="cls-4"><g class="cls-4"><g class="cls-16"><g class="cls-4"><path class="cls-6" d="M8.4,26v1.13a2.87,2.87,0,0,1-.1.75V26.73A2.76,2.76,0,0,0,8.4,26"/><path class="cls-7" d="M8.3,26.73v1.13a3.67,3.67,0,0,1-.3.72V27.45a3.43,3.43,0,0,0,.3-.72"/><path class="cls-8" d="M8,27.45v1.13a2,2,0,0,1-.12.19,2.69,2.69,0,0,1-.39.5V28.15a2.69,2.69,0,0,0,.39-.5,2.12,2.12,0,0,0,.12-.2"/><path class="cls-9" d="M7.49,28.15v1.12a2.66,2.66,0,0,1-1.89.9,1.76,1.76,0,0,1-.94-.26,1.9,1.9,0,0,1-.83-1.67V27.11a1.91,1.91,0,0,0,.83,1.68,1.85,1.85,0,0,0,.94.26,2.7,2.7,0,0,0,1.89-.9"/></g></g></g><path class="cls-13" d="M6.63,24a1.7,1.7,0,0,1,.93.26,2.39,2.39,0,0,1,.32,3.35,2.86,2.86,0,0,1-2.28,1.4,1.85,1.85,0,0,1-.94-.26,2.4,2.4,0,0,1-.31-3.35A2.82,2.82,0,0,1,6.63,24Z"/></g><path class="cls-17" d="M44.86,37.77c8,.86,7.71-7.72,7.71-7.72V25.2l-.28-.29-1.72.57V31.2s-1.14,6.85-6,6.57"/><path class="cls-17" d="M1.2,27.48c.2,4.55,1,10.23,7.11,10.33s10.67-7,10.67-7H33.63V28.75l-17,0s-4.85,6-9.31,6.08S1.2,27.48,1.2,27.48Z"/><path class="cls-2" d="M39.87,38.38a21.8,21.8,0,0,1-4.69-4.93H18.75a20.6,20.6,0,0,1-4.64,4.43c-6,3.93-10.41.15-10.78-.19a26.07,26.07,0,0,0,47.05.93C50,39,45.72,42.66,39.87,38.38Z"/><path class="cls-18" d="M27.08.85A25.93,25.93,0,0,0,1.79,21.36c4.41-7.48,8.54-9.57,11.79-9.55,4.19,0,6.92,3.57,6.92,3.57h6.61V.85Z"/><path class="cls-18" d="M28.72.9h-.09V15.38H35s2.73-3.23,6.7-3.1c3.09.09,6.92,2.21,10.81,9.46A25.94,25.94,0,0,0,28.72.9Z"/><ellipse class="cls-19" cx="27.11" cy="46.14" rx="10.96" ry="4.25"/><text class="cls-20" transform="translate(20.16 48.55)">A.S.<tspan class="cls-21" x="10.04" y="0">A</tspan></text></svg>