<svg id="Capa_2" data-name="Capa 2" xmlns="http://www.w3.org/2000/svg" viewBox="0 0 1057 1057.32"><defs><style>.cls-1{fill:#fff;}.cls-2{fill:#56667f;}.cls-3{fill:#00a9de;}.cls-4{fill:#335171;}.cls-5{fill:#e8ebef;}.cls-6{fill:none;stroke:#000;stroke-miterlimit:10;stroke-width:0.25px;}.cls-7{fill:#3a5675;}</style></defs><circle class="cls-1" cx="528.5" cy="528.5" r="528.5"/><path class="cls-2" d="M966.62,513.31a26.21,26.21,0,0,1-26.25,26.25H893.71v46.66a26.25,26.25,0,0,1-52.5,0V539.56H794.55a26.25,26.25,0,0,1,0-52.5h46.66V440.4a26.25,26.25,0,0,1,52.5,0v46.66h46.66A26.21,26.21,0,0,1,966.62,513.31Z" transform="translate(-20 -10)"/><path class="cls-3" d="M966.62,507.48a26.21,26.21,0,0,1-26.25,26.24H893.71v46.67a26.25,26.25,0,0,1-52.5,0V533.72H794.55a26.25,26.25,0,0,1,0-52.49h46.66V434.56a26.25,26.25,0,0,1,52.5,0v46.67h46.66A26.21,26.21,0,0,1,966.62,507.48Z" transform="translate(-20 -10)"/><ellipse class="cls-4" cx="263.16" cy="542.56" rx="55.41" ry="46.29" transform="translate(-351.08 430.07) rotate(-54.34)"/><ellipse class="cls-3" cx="263.16" cy="536.72" rx="55.48" ry="46.2" transform="matrix(0.59, -0.81, 0.81, 0.59, -346.03, 425.78)"/><ellipse class="cls-4" cx="190.24" cy="408.4" rx="55.49" ry="43.04" transform="matrix(0.51, -0.86, 0.86, 0.51, -277.83, 351.39)"/><ellipse class="cls-3" cx="190.24" cy="396.73" rx="56.11" ry="42.23" transform="translate(-266.58 334.07) rotate(-57.51)"/><ellipse class="cls-4" cx="120.25" cy="562.97" rx="52.93" ry="42.81" transform="translate(-423.36 313.74) rotate(-53.39)"/><ellipse class="cls-3" cx="120.25" cy="548.39" rx="55.6" ry="42.9" transform="translate(-430.95 356.67) rotate(-58.75)"/><path class="cls-3" d="M211.24,679.55" transform="translate(-20 -10)"/><path class="cls-3" d="M164.58,691.22" transform="translate(-20 -10)"/><path class="cls-5" d="M911.21,764.13c163.32,17.5,157.49-157.49,157.49-157.49V507.48l-5.83-5.84-35,11.67V630s-23.33,140-122.5,134.16" transform="translate(-20 -10)"/><path class="cls-6" d="M23.46,414.15" transform="translate(-20 -10)"/><path class="cls-6" d="M20.17,429.56" transform="translate(-20 -10)"/><path class="cls-6" d="M543.72,2.92" transform="translate(-20 -10)"/><path class="cls-6" d="M1097.86,895.37" transform="translate(-20 -10)"/><path class="cls-5" d="M20,554c4,93,21,209,145,211S383,622,383,622H682V580l-347.5.5s-99,123-190,124S20,554,20,554Z" transform="translate(-20 -10)"/><path class="cls-3" d="M808.12,771c-29.9-21.87-61.86-54-95.12-100H380c-32.76,41.47-64.34,70.31-94,89.81-121.44,79.78-210.82,3-218.37-3.81,83.19,182.87,267.64,310.32,481.29,310.32,206.25,0,385.28-118.78,472.26-291.52C1013.05,783.27,926.73,857.81,808.12,771Z" transform="translate(-20 -10)"/><path class="cls-7" d="M548.39,10.49C294.89,10.74,82.6,190.42,32,429.11,122.1,276.49,206.31,233.8,272.6,234.17,358.25,234.65,414,307,414,307H549V10.49Z" transform="translate(-20 -10)"/><path class="cls-7" d="M581.71,11.5,580,11.39V307H710s55.72-65.78,136.71-63.28c63,1.94,141.4,45.25,220.72,193.15C1021.81,204.58,823.49,26.38,581.71,11.5Z" transform="translate(-20 -10)"/></svg>