<svg height="480pt" viewBox="0 0 480 480" width="480pt" xmlns="http://www.w3.org/2000/svg"><path d="m440 0h-400c-22.082031.0273438-39.9726562 17.917969-40 40v400c.0273438 22.082031 17.917969 39.972656 40 40h400c22.082031-.027344 39.972656-17.917969 40-40v-400c-.027344-22.082031-17.917969-39.9726562-40-40zm-138.246094 16-4 16h-115.507812l-4-16zm-285.753906 162.246094 16 4v115.507812l-16 4zm162.246094 285.753906 4-16h115.507812l4 16zm261.753906 0h-121.761719l-6.476562-25.945312c-.894531-3.558594-4.09375-6.054688-7.761719-6.054688h-128c-3.667969 0-6.867188 2.496094-7.761719 6.054688l-6.476562 25.945312h-121.761719c-13.253906 0-24-10.746094-24-24v-121.753906l25.9375-6.484375c3.5625-.890625 6.0625-4.089844 6.0625-7.761719v-128c0-3.671875-2.5-6.871094-6.0625-7.761719l-25.9375-6.484375v-121.753906c0-13.253906 10.746094-24 24-24h121.761719l6.476562 25.945312c.894531 3.558594 4.09375 6.054688 7.761719 6.054688h128c3.667969 0 6.867188-2.496094 7.761719-6.054688l6.476562-25.945312h121.761719c13.253906 0 24 10.746094 24 24v121.753906l-25.9375 6.484375c-3.5625.890625-6.0625 4.089844-6.0625 7.761719v128c0 3.671875 2.5 6.871094 6.0625 7.761719l25.9375 6.484375v121.753906c0 13.253906-10.746094 24-24 24zm24-162.246094-16-4v-115.507812l16-4zm0 0"/><path d="m400 64h-320c-8.835938 0-16 7.164062-16 16v320c0 8.835938 7.164062 16 16 16h320c8.835938 0 16-7.164062 16-16v-320c0-8.835938-7.164062-16-16-16zm-320 336v-320h320v320zm0 0"/><path d="m128 208v64c0 8.835938 7.164062 16 16 16h48v-16h-48v-64h48v-16h-48c-8.835938 0-16 7.164062-16 16zm0 0"/><path d="m256 192h-40c-4.417969 0-8 3.582031-8 8v88h16v-32h32c8.835938 0 16-7.164062 16-16v-32c0-8.835938-7.164062-16-16-16zm-32 48v-32h32v32zm0 0"/><path d="m336 272h-32v-80h-16v80c0 8.835938 7.164062 16 16 16h32c8.835938 0 16-7.164062 16-16v-80h-16zm0 0"/></svg>