<svg height="512" viewBox="0 0 36 60" width="512" xmlns="http://www.w3.org/2000/svg"><g id="Page-1" fill="none" fill-rule="evenodd"><g id="004---Graphics-Card" fill="rgb(0,0,0)" fill-rule="nonzero"><path id="Shape" d="m2 44h3v13c0 1.6568542 1.34314575 3 3 3h22c1.6568542 0 3-1.3431458 3-3v-51h1c1.1045695 0 2-.8954305 2-2v-3c0-.55228475-.4477153-1-1-1s-1 .44771525-1 1v3h-12v-3c0-.55228475-.4477153-1-1-1h-10c-.5522847 0-1 .44771525-1 1v3h-9c-.55228475 0-1 .44771525-1 1s.44771525 1 1 1h4v4h-3c-1.1045695 0-2 .8954305-2 2v21c0 .5522847.44771525 1 1 1s1 .4477153 1 1-.44771525 1-1 1-1 .4477153-1 1v5c0 1.1045695.8954305 2 2 2zm5-24.59 3.59 3.59-3.59 3.59zm0 23.59v-6.59l3.59 3.59-3.59 3.59zm0 14v-3.59l3.59 3.59-1 1h-1.59c-.55228475 0-1-.4477153-1-1zm23 1h-1.59l-1-1 3.59-3.59v3.59c0 .5522847-.4477153 1-1 1zm1-14.41-3.59-3.59 3.59-3.59zm0-17-3.59-3.59 3.59-3.59zm-19-24.59h8v2h-8zm-1 4h20v10.59l-5.71 5.7c-.1893127.1877666-.2957983.4433625-.2957983.71s.1064856.5222334.2957983.71l5.71 5.7v4.18l-5.71 5.7c-.1893127.1877666-.2957983.4433625-.2957983.71s.1064856.5222334.2957983.71l5.71 5.7v4.18l-5.71 5.7c-.1893127.1877666-.2957983.4433625-.2957983.71s.1064856.5222334.2957983.71l.3.29h-13.18l.3-.29c.1893127-.1877666.2957983-.4433625.2957983-.71s-.1064856-.5222334-.2957983-.71l-5.71-5.7v-4.18l5.71-5.7c.1893127-.1877666.2957983-.4433625.2957983-.71s-.1064856-.5222334-.2957983-.71l-5.71-5.7v-4.18l5.71-5.7c.1893127-.1877666.2957983-.4433625.2957983-.71s-.1064856-.5222334-.2957983-.71l-5.71-5.7v-10.59zm-9 31.83c1.20094336-.422469 2.00445995-1.5569152 2.00445995-2.83s-.80351659-2.407531-2.00445995-2.83v-20.17h3v30h-3z"/><path id="Shape" d="m15.1 22.41c.3733503.3755878.8804232.5877672 1.41.59h5c.5295768-.0022328 1.0366497-.2144122 1.41-.59l3.51-3.51c.3682596-.3766035.5730856-.8832783.57-1.41v-5c-.0022328-.5295768-.2144122-1.0366497-.59-1.41l-3.51-3.49c-.3733503-.37558779-.8804232-.58776721-1.41-.59h-5c-.5295768.00223279-1.0366497.21441221-1.41.59l-3.49 3.51c-.3755878.3733503-.5877672.8804232-.59 1.41v5c.0022328.5295768.2144122 1.0366497.59 1.41zm-2.1-5.76c.5808735.2245007 1.1972912.3430426 1.82.35.5773321.0031097 1.1480088-.1233276 1.67-.37l.09.13c-.1 1.33-1.47 1.89-2.21 2.1l-1.37-1.37zm5-1.65c0-.5522847.4477153-1 1-1s1 .4477153 1 1-.4477153 1-1 1-1-.4477153-1-1zm-2.07 5.41c1.1168324-.4603249 1.9978947-1.3558307 2.44-2.48h.16c.88 1 .3 2.38-.08 3.05h-1.94zm4.72.59c.475214-1.1148029.475214-2.3751971 0-3.49l.13-.09c1.35.1 1.9 1.46 2.1 2.21l-1.39 1.37zm3.76-2.93c-.4632438-1.1148655-1.3577499-1.9949441-2.48-2.44 0-.05 0-.11 0-.16 1-.88 2.38-.3 3.05.08v1.94zm.59-4.72c-1.1148029-.475214-2.3751971-.475214-3.49 0l-.09-.13c.1-1.33 1.47-1.89 2.21-2.1l1.37 1.39zm-2.93-3.76c-1.1168324.4603249-1.9978947 1.3558307-2.44 2.48h-.16c-.88-1-.3-2.38.08-3.05h1.94zm-4.72-.59c-.475214 1.1148029-.475214 2.3751971 0 3.49l-.13.09c-1.34-.11-1.9-1.47-2.1-2.21l1.39-1.37zm-3.76 2.93c.4632438 1.1148655 1.3577499 1.9949441 2.48 2.44v.16c-1 .87-2.38.3-3.05-.08v-1.94z"/><path id="Shape" d="m21.49 24h-5c-.5295768.0022328-1.0366497.2144122-1.41.59l-3.49 3.51c-.3755878.3733503-.5877672.8804232-.59 1.41v5c.0022328.5295768.2144122 1.0366497.59 1.41l3.51 3.51c.3733503.3755878.8804232.5877672 1.41.59h5c.5295768-.0022328 1.0366497-.2144122 1.41-.59l3.51-3.51c.3731845-.3815233.578405-.8963746.57-1.43v-5c-.0022328-.5295768-.2144122-1.0366497-.59-1.41l-3.51-3.49c-.3733503-.3755878-.8804232-.5877672-1.41-.59zm.58 2.59c-1.1168324.4603249-1.9978947 1.3558307-2.44 2.48h-.16c-.88-1-.3-2.38.08-3.05h1.94zm-2.07 5.41c0 .5522847-.4477153 1-1 1s-1-.4477153-1-1 .4477153-1 1-1 1 .4477153 1 1zm-2.65-6c-.475214 1.1148029-.475214 2.3751971 0 3.49l-.13.09c-1.34-.11-1.9-1.47-2.1-2.21l1.39-1.37zm-3.76 2.93c.4632438 1.1148655 1.3577499 1.9949441 2.48 2.44v.16c-1 .87-2.38.3-3.05-.08v-1.94zm-.59 4.72c.5808735.2245007 1.1972912.3430426 1.82.35.5773321.0031097 1.1480088-.1233276 1.67-.37l.09.13c-.1 1.33-1.47 1.89-2.21 2.1l-1.37-1.37zm2.93 3.76c1.1168324-.4603249 1.9978947-1.3558307 2.44-2.48h.16c.88 1 .3 2.38-.08 3h-1.94zm4.72.59c.475214-1.1148029.475214-2.3751971 0-3.49l.13-.09c1.35.1 1.9 1.46 2.1 2.21l-1.39 1.37zm3.76-2.93c-.4632438-1.1148655-1.3577499-1.9949441-2.48-2.44 0-.06 0-.11 0-.16 1-.88 2.38-.3 3.05.08v1.94zm.59-4.72c-1.1148029-.475214-2.3751971-.475214-3.49 0l-.09-.13c.1-1.33 1.47-1.89 2.21-2.1l1.37 1.39z"/><path id="Shape" d="m21.49 41h-5c-.5295768.0022328-1.0366497.2144122-1.41.59l-3.49 3.51c-.3755878.3733503-.5877672.8804232-.59 1.41v5c.0022328.5295768.2144122 1.0366497.59 1.41l3.51 3.51c.3733503.3755878.8804232.5877672 1.41.59h5c.5295768-.0022328 1.0366497-.2144122 1.41-.59l3.51-3.51c.3731845-.3815233.578405-.8963746.57-1.43v-5c-.0022328-.5295768-.2144122-1.0366497-.59-1.41l-3.51-3.49c-.3733503-.3755878-.8804232-.5877672-1.41-.59zm.58 2.59c-1.1168324.4603249-1.9978947 1.3558307-2.44 2.48h-.16c-.88-1-.3-2.38.08-3h1.94zm-2.07 5.41c0 .5522847-.4477153 1-1 1s-1-.4477153-1-1 .4477153-1 1-1 1 .4477153 1 1zm-2.65-6c-.475214 1.1148029-.475214 2.3751971 0 3.49l-.13.09c-1.34-.11-1.9-1.47-2.1-2.21l1.39-1.37zm-3.76 2.93c.4632438 1.1148655 1.3577499 1.9949441 2.48 2.44v.16c-1 .87-2.38.3-3.05-.08v-1.94zm-.59 4.72c.5808735.2245007 1.1972912.3430426 1.82.35.5773321.0031097 1.1480088-.1233276 1.67-.37l.09.13c-.1 1.33-1.47 1.89-2.21 2.1l-1.37-1.37zm2.93 3.76c1.1168324-.4603249 1.9978947-1.3558307 2.44-2.48h.16c.88 1 .3 2.38-.08 3h-1.94zm4.72.59c.475214-1.1148029.475214-2.3751971 0-3.49l.13-.09c1.35.1 1.9 1.46 2.1 2.21l-1.39 1.37zm3.76-2.93c-.4661151-1.1129248-1.3596437-1.9920416-2.48-2.44 0-.05 0-.11 0-.16 1-.88 2.38-.3 3.05.08v1.94zm.59-4.72c-1.1148029-.475214-2.3751971-.475214-3.49 0l-.09-.13c.1-1.33 1.47-1.89 2.21-2.1l1.37 1.39z"/></g></g></svg>