<svg id="Capa_2" data-name="Capa 2" xmlns="http://www.w3.org/2000/svg" xmlns:xlink="http://www.w3.org/1999/xlink" viewBox="0 0 200 54"><defs><style>.cls-1{fill:none;}.cls-2{fill:#00a9de;}.cls-3{fill:#111010;}.cls-4{isolation:isolate;}.cls-5{clip-path:url(#clip-path);}.cls-6{fill:#006281;}.cls-7{fill:#005f7c;}.cls-8{fill:#005b78;}.cls-9{fill:#005873;}.cls-10{fill:#00556f;}.cls-11{clip-path:url(#clip-path-2);}.cls-12{clip-path:url(#clip-path-3);}.cls-13{fill:#0099c9;}.cls-14{clip-path:url(#clip-path-4);}.cls-15{clip-path:url(#clip-path-5);}.cls-16{clip-path:url(#clip-path-6);}.cls-17{fill:#e8ebef;}.cls-18{fill:#3a5675;}.cls-19{fill:#11b8e4;}.cls-20{font-size:5.92px;fill:#fff;font-family:Constantia;}.cls-21{letter-spacing:-0.01em;}</style><clipPath id="clip-path"><path class="cls-1" d="M47.57,24.63v1.12A1.26,1.26,0,0,1,46.29,27V25.88A1.26,1.26,0,0,0,47.57,24.63Z"/></clipPath><clipPath id="clip-path-2"><path class="cls-1" d="M39.14,25.88V27a1.27,1.27,0,0,1-1.29-1.26V24.63A1.27,1.27,0,0,0,39.14,25.88Z"/></clipPath><clipPath id="clip-path-3"><path class="cls-1" d="M44,28.11v1.13a1.29,1.29,0,0,1-2.57,0V28.11a1.29,1.29,0,0,0,2.57,0Z"/></clipPath><clipPath id="clip-path-4"><path class="cls-1" d="M15.54,25.56v1.12a3,3,0,0,1-2.85,2.94,2,2,0,0,1-1.06-.29,2,2,0,0,1-1-1.79V26.42a2,2,0,0,0,1,1.79,2.08,2.08,0,0,0,1.06.28,3,3,0,0,0,2.85-2.93Z"/></clipPath><clipPath id="clip-path-5"><path class="cls-1" d="M11.83,18.67V19.8a3.21,3.21,0,0,1-.54,1.71A3,3,0,0,1,9,22.94a1.7,1.7,0,0,1-.9-.25,1.86,1.86,0,0,1-.81-1.63V19.94a1.86,1.86,0,0,0,.81,1.63,1.78,1.78,0,0,0,.9.24,3,3,0,0,0,2.33-1.42A3.24,3.24,0,0,0,11.83,18.67Z"/></clipPath><clipPath id="clip-path-6"><path class="cls-1" d="M8.4,26v1.13a3.05,3.05,0,0,1-.52,1.66,2.84,2.84,0,0,1-2.28,1.4,1.76,1.76,0,0,1-.94-.26,1.9,1.9,0,0,1-.83-1.67V27.11a1.91,1.91,0,0,0,.83,1.68,1.85,1.85,0,0,0,.94.26,2.86,2.86,0,0,0,2.28-1.4A3.11,3.11,0,0,0,8.4,26Z"/></clipPath></defs><path class="cls-2" d="M65.84,30.45V30c.94-.13,1-.29.78-.9s-.42-1.18-.68-1.89H63c-.19.53-.4,1.1-.57,1.61-.32.94,0,1.06,1.17,1.18v.5H60V30c.93-.12,1.17-.24,1.68-1.51l3.06-7.68.63-.12c.94,2.55,2,5.24,2.9,7.74.52,1.34.65,1.45,1.64,1.57v.5ZM64.48,23.1c-.44,1.14-.89,2.25-1.28,3.36h2.49Z"/><path class="cls-2" d="M78.29,30.45V30c1.15-.12,1.22-.22,1.21-1.64V22.46c-1.12,2.6-2.56,5.9-3.43,8h-.45c-.8-2-2.07-5.24-3.15-7.86-.22,4.82-.22,5.83-.22,6.27,0,.81.33,1,1.41,1.09v.5H70.05V30c.85-.08,1.22-.25,1.34-1.1.07-.52.11-1.25.47-6.31,0-.73-.07-1.08-1.35-1.19v-.5h3l3,6.85,3.08-6.85h2.93v.5c-1.21.13-1.35.25-1.32,1.38l.1,5.58c0,1.42.08,1.49,1.31,1.64v.5Z"/><path class="cls-2" d="M88.89,30.45V30c.94-.13,1-.29.77-.9s-.42-1.18-.67-1.89H86c-.19.53-.4,1.1-.57,1.61-.31.94,0,1.06,1.17,1.18v.5H83V30c.93-.12,1.17-.24,1.67-1.51l3.07-7.68.63-.12c.94,2.55,2,5.24,2.9,7.74C91.83,29.72,92,29.83,93,30v.5ZM87.53,23.1c-.45,1.14-.89,2.25-1.29,3.36h2.5Z"/><path class="cls-2" d="M102.33,27.79c-.1.54-.5,2.1-.63,2.66H93.85l-.11-.3c1.89-2.75,3.9-5.75,5.82-8.65h-2.5c-1.15,0-1.39.13-1.7.62a6.71,6.71,0,0,0-.58,1.26l-.52,0c.09-.85.24-2.22.28-2.87H95c.18.35.37.36.82.36h6l.11.25c-1.89,2.82-3.83,5.71-5.74,8.65.48,0,1.09.05,2,.05,1.82,0,2.16-.06,2.58-.47a5.33,5.33,0,0,0,1-1.66Z"/><path class="cls-2" d="M103.28,30.45V30c1.15-.12,1.28-.19,1.28-1.44V22.8c0-1.25-.14-1.35-1.28-1.45v-.5h4.35v.5c-1.15.11-1.29.2-1.29,1.45v5.71c0,1.24.13,1.31,1.29,1.44v.5Z"/><path class="cls-2" d="M119.23,21.35c-.92.11-1.21.29-1.25,1s-.07,1.08-.07,2.4V30.6h-.74L111,23.1v3.46c0,1.3,0,1.91.07,2.33,0,.69.38,1,1.46,1.06v.5h-3.64V30c.87-.08,1.24-.3,1.31-1a20.07,20.07,0,0,0,.09-2.4V23a1.57,1.57,0,0,0-.31-1.12c-.27-.37-.61-.43-1.26-.49v-.5h2.64l5.85,6.85v-3c0-1.32,0-1.86-.06-2.37s-.32-.92-1.53-1v-.5h3.65Z"/><path class="cls-2" d="M130.08,26.41c-.87.13-1,.2-1,1.16v1.17a8.84,8.84,0,0,0,.08,1.43,19.18,19.18,0,0,1-3.49.5c-3.43,0-5.44-2.1-5.44-5,0-3.25,2.64-5,5.72-5a20.38,20.38,0,0,1,3,.35c0,.61.13,1.66.24,2.51l-.53.1A2.71,2.71,0,0,0,127,21.44a4.59,4.59,0,0,0-1.3-.19c-2,0-3.34,1.55-3.34,4.15s1,4.67,3.6,4.67a2.2,2.2,0,0,0,1-.23c.26-.15.4-.37.4-.88V27.7c0-1.05-.17-1.16-1.48-1.29V25.9h4.2Z"/><path class="cls-2" d="M139.9,23.22c-.28-1-.7-2-2.07-2a1.4,1.4,0,0,0-1.46,1.5c0,.88.58,1.38,1.85,2,1.65.83,2.57,1.56,2.57,3,0,1.68-1.41,2.92-3.45,2.92a7.52,7.52,0,0,1-2.4-.47c-.1-.36-.33-1.71-.43-2.45l.54-.12c.29.95,1.06,2.44,2.53,2.44a1.45,1.45,0,0,0,1.55-1.57c0-.95-.56-1.44-1.82-2.12-1.54-.83-2.5-1.56-2.5-3s1.17-2.7,3.29-2.7a10.43,10.43,0,0,1,2.06.27c.05.54.14,1.25.26,2.19Z"/><path class="cls-2" d="M151.16,28a19.38,19.38,0,0,1-.82,2.33,13.63,13.63,0,0,1-2.71.37c-3.82,0-5.52-2.48-5.52-4.91,0-3.05,2.32-5.12,5.78-5.12a15.07,15.07,0,0,1,2.8.35c.06.68.17,1.7.28,2.39l-.55.1a2.51,2.51,0,0,0-1.49-2,3.77,3.77,0,0,0-1.38-.24c-2.24,0-3.39,1.8-3.39,4.16,0,2.75,1.42,4.58,3.57,4.58,1.33,0,2.13-.66,2.91-2.24Z"/><path class="cls-2" d="M161.58,30.55l-.48,0c-1.6-.09-2.15-.44-2.67-1.17s-1-1.7-1.53-2.54c-.25-.43-.45-.51-1-.51h-.37v2.21c0,1.22.15,1.31,1.28,1.44v.5h-4.31V30c1.15-.13,1.28-.22,1.28-1.44V22.77c0-1.2-.16-1.32-1.28-1.42v-.5h4.1a4.36,4.36,0,0,1,2.56.54,2.23,2.23,0,0,1,1,2,2.58,2.58,0,0,1-1.87,2.44c.24.45.83,1.42,1.28,2.09a11.25,11.25,0,0,0,1.14,1.54,2,2,0,0,0,1,.66ZM156,25.73a2.23,2.23,0,0,0,1.51-.4,2.09,2.09,0,0,0,.74-1.76,1.86,1.86,0,0,0-1.89-2.14c-.41,0-.62.06-.71.15s-.15.26-.15.59v3.56Z"/><path class="cls-2" d="M170.14,28c-.08.4-.49,2-.63,2.46H162V30c1.36-.13,1.45-.22,1.45-1.45V22.8c0-1.28-.17-1.36-1.21-1.45v-.5H167c1.5,0,2,0,2.23,0,0,.3.08,1.47.14,2.34l-.53.08a3.88,3.88,0,0,0-.56-1.29c-.26-.36-.5-.45-1.3-.45h-1.12c-.52,0-.57,0-.57.51v3.15h1.51c.93,0,1.05-.23,1.26-1.26h.53v3.21H168c-.23-1.09-.34-1.25-1.27-1.25h-1.5v2.68c0,1,.13,1.25,1,1.27h1.17c.85,0,1.05-.11,1.37-.51a6.25,6.25,0,0,0,.86-1.43Z"/><path class="cls-2" d="M179,28c-.07.4-.48,2-.62,2.46h-7.5V30c1.36-.13,1.45-.22,1.45-1.45V22.8c0-1.28-.17-1.36-1.21-1.45v-.5h4.7c1.5,0,2,0,2.23,0,0,.3.08,1.47.14,2.34l-.53.08A3.87,3.87,0,0,0,177.1,22c-.25-.36-.49-.45-1.29-.45h-1.12c-.52,0-.57,0-.57.51v3.15h1.51c.93,0,1.05-.23,1.25-1.26h.54v3.21h-.54c-.22-1.09-.33-1.25-1.26-1.25h-1.5v2.68c0,1,.13,1.25,1,1.27h1.17c.85,0,1-.11,1.37-.51a6.25,6.25,0,0,0,.86-1.43Z"/><path class="cls-2" d="M190.2,21.35c-.91.11-1.2.29-1.25,1s-.07,1.08-.07,2.4V30.6h-.74l-6.21-7.5v3.46c0,1.3,0,1.91.07,2.33.05.69.38,1,1.46,1.06v.5h-3.63V30c.86-.08,1.23-.3,1.31-1a23.54,23.54,0,0,0,.08-2.4V23a1.62,1.62,0,0,0-.3-1.12c-.28-.37-.61-.43-1.27-.49v-.5h2.65l5.85,6.85v-3c0-1.32,0-1.86-.07-2.37s-.31-.92-1.52-1v-.5h3.64Z"/><path class="cls-2" d="M196.52,23.22c-.28-1-.69-2-2.06-2a1.4,1.4,0,0,0-1.46,1.5c0,.88.58,1.38,1.85,2,1.65.83,2.57,1.56,2.57,3,0,1.68-1.41,2.92-3.45,2.92a7.52,7.52,0,0,1-2.4-.47c-.1-.36-.33-1.71-.43-2.45l.53-.12c.3.95,1.06,2.44,2.54,2.44a1.45,1.45,0,0,0,1.54-1.57c0-.95-.55-1.44-1.82-2.12-1.54-.83-2.49-1.56-2.49-3s1.16-2.7,3.29-2.7a10.29,10.29,0,0,1,2.05.27c.06.54.15,1.25.27,2.19Z"/><circle class="cls-3" cx="27.11" cy="26.93" r="26.07"/><g class="cls-4"><g class="cls-4"><g class="cls-5"><g class="cls-4"><path class="cls-6" d="M47.57,24.63v1.12a1.15,1.15,0,0,1,0,.33V25a1.24,1.24,0,0,0,0-.33"/><path class="cls-7" d="M47.53,25v1.12a1,1,0,0,1-.11.28V25.23a.9.9,0,0,0,.11-.27"/><path class="cls-8" d="M47.42,25.23v1.13a1.44,1.44,0,0,1-.18.25V25.48a1.14,1.14,0,0,0,.18-.25"/><path class="cls-9" d="M47.24,25.48v1.13a1.35,1.35,0,0,1-1,.4V25.88a1.31,1.31,0,0,0,1-.4"/></g></g></g><rect class="cls-10" x="44" y="25.88" width="2.29" height="1.12"/><rect class="cls-10" x="39.14" y="25.88" width="2.29" height="1.12"/><g class="cls-4"><g class="cls-11"><g class="cls-4"><path class="cls-9" d="M39.14,25.88V27a1.27,1.27,0,0,1-1.29-1.26V24.63a1.27,1.27,0,0,0,1.29,1.25"/></g></g></g><g class="cls-4"><g class="cls-12"><g class="cls-4"><path class="cls-6" d="M44,28.11v1.13a1.12,1.12,0,0,1,0,.32V28.43a1.12,1.12,0,0,0,0-.32"/><path class="cls-7" d="M44,28.43v1.13a1.69,1.69,0,0,1-.11.27V28.71a2.33,2.33,0,0,0,.11-.28"/><path class="cls-8" d="M43.85,28.71v1.12a1.24,1.24,0,0,1-.19.26V29a1.18,1.18,0,0,0,.19-.25"/><path class="cls-9" d="M43.66,29v1.13a1.31,1.31,0,0,1-.94.4,1.27,1.27,0,0,1-1.29-1.25V28.11a1.29,1.29,0,0,0,2.23.85"/></g></g></g><path class="cls-13" d="M42.72,19.9a1.27,1.27,0,0,1,.9.37,1.2,1.2,0,0,1,.38.89v2.22h2.29a1.25,1.25,0,1,1,0,2.5H44v2.23a1.29,1.29,0,0,1-2.57,0V25.88H39.14a1.27,1.27,0,0,1-1.29-1.25,1.23,1.23,0,0,1,.38-.88,1.31,1.31,0,0,1,.91-.37h2.29V21.16A1.27,1.27,0,0,1,42.72,19.9Z"/></g><g class="cls-4"><g class="cls-4"><g class="cls-14"><g class="cls-4"><path class="cls-6" d="M15.54,25.56v1.12a2.8,2.8,0,0,1-.09.7V26.26a2.86,2.86,0,0,0,.09-.7"/><path class="cls-7" d="M15.45,26.26v1.12a2.58,2.58,0,0,1-.28.67V26.93a2.73,2.73,0,0,0,.28-.67"/><path class="cls-8" d="M15.17,26.93v1.12a1.59,1.59,0,0,1-.13.22,2.93,2.93,0,0,1-.34.43V27.57a3.47,3.47,0,0,0,.34-.42l.13-.22"/><path class="cls-9" d="M14.7,27.57V28.7a2.83,2.83,0,0,1-2,.92,2,2,0,0,1-1.06-.29,2,2,0,0,1-1-1.79V26.42a2,2,0,0,0,1,1.79,2.08,2.08,0,0,0,1.06.28,2.83,2.83,0,0,0,2-.92"/></g></g></g><path class="cls-13" d="M13.53,23.48a2,2,0,0,1,1.06.29A2.34,2.34,0,0,1,15,27.15a2.91,2.91,0,0,1-2.35,1.34,2.08,2.08,0,0,1-1.06-.28,2.36,2.36,0,0,1-.44-3.39A2.91,2.91,0,0,1,13.53,23.48Z"/></g><g class="cls-4"><g class="cls-4"><g class="cls-15"><g class="cls-4"><path class="cls-6" d="M11.83,18.67V19.8a3.37,3.37,0,0,1-.1.75V19.42a3.29,3.29,0,0,0,.1-.75"/><path class="cls-7" d="M11.73,19.42v1.13a3.63,3.63,0,0,1-.31.74V20.17a4,4,0,0,0,.31-.75"/><path class="cls-8" d="M11.42,20.17v1.12c0,.08-.09.15-.13.22a4,4,0,0,1-.4.5V20.89a4,4,0,0,0,.4-.5c0-.08.09-.15.13-.22"/><path class="cls-9" d="M10.89,20.89V22A2.76,2.76,0,0,1,9,22.94a1.7,1.7,0,0,1-.9-.25,1.86,1.86,0,0,1-.81-1.63V19.94a1.86,1.86,0,0,0,.81,1.63,1.78,1.78,0,0,0,.9.24,2.75,2.75,0,0,0,1.93-.92"/></g></g></g><path class="cls-13" d="M10.12,16.8A1.76,1.76,0,0,1,11,17c1,.6,1.09,2.09.27,3.35A3,3,0,0,1,9,21.81a1.78,1.78,0,0,1-.9-.24c-1-.6-1.08-2.1-.27-3.34A2.92,2.92,0,0,1,10.12,16.8Z"/></g><g class="cls-4"><g class="cls-4"><g class="cls-16"><g class="cls-4"><path class="cls-6" d="M8.4,26v1.13a2.87,2.87,0,0,1-.1.75V26.73A2.76,2.76,0,0,0,8.4,26"/><path class="cls-7" d="M8.3,26.73v1.13a3.67,3.67,0,0,1-.3.72V27.45a3.43,3.43,0,0,0,.3-.72"/><path class="cls-8" d="M8,27.45v1.13a2,2,0,0,1-.12.19,2.69,2.69,0,0,1-.39.5V28.15a2.69,2.69,0,0,0,.39-.5,2.12,2.12,0,0,0,.12-.2"/><path class="cls-9" d="M7.49,28.15v1.12a2.66,2.66,0,0,1-1.89.9,1.76,1.76,0,0,1-.94-.26,1.9,1.9,0,0,1-.83-1.67V27.11a1.91,1.91,0,0,0,.83,1.68,1.85,1.85,0,0,0,.94.26,2.7,2.7,0,0,0,1.89-.9"/></g></g></g><path class="cls-13" d="M6.63,24a1.7,1.7,0,0,1,.93.26,2.39,2.39,0,0,1,.32,3.35,2.86,2.86,0,0,1-2.28,1.4,1.85,1.85,0,0,1-.94-.26,2.4,2.4,0,0,1-.31-3.35A2.82,2.82,0,0,1,6.63,24Z"/></g><path class="cls-17" d="M44.86,37.77c8,.86,7.71-7.72,7.71-7.72V25.2l-.28-.29-1.72.57V31.2s-1.14,6.85-6,6.57"/><path class="cls-17" d="M1.2,27.48c.2,4.55,1,10.23,7.11,10.33s10.67-7,10.67-7H33.63V28.75l-17,0s-4.85,6-9.31,6.08S1.2,27.48,1.2,27.48Z"/><path class="cls-2" d="M39.87,38.38a21.8,21.8,0,0,1-4.69-4.93H18.75a20.6,20.6,0,0,1-4.64,4.43c-6,3.93-10.41.15-10.78-.19a26.07,26.07,0,0,0,47.05.93C50,39,45.72,42.66,39.87,38.38Z"/><path class="cls-18" d="M27.08.85A25.93,25.93,0,0,0,1.79,21.36c4.41-7.48,8.54-9.57,11.79-9.55,4.19,0,6.92,3.57,6.92,3.57h6.61V.85Z"/><path class="cls-18" d="M28.72.9h-.09V15.38H35s2.73-3.23,6.7-3.1c3.09.09,6.92,2.21,10.81,9.46A25.94,25.94,0,0,0,28.72.9Z"/><ellipse class="cls-19" cx="27.11" cy="46.14" rx="10.96" ry="4.25"/><text class="cls-20" transform="translate(20.16 48.55)">A.S.<tspan class="cls-21" x="10.04" y="0">A</tspan></text><path class="cls-2" d="M106.48,45.44v-.37c.7-.09.73-.21.58-.66s-.32-.88-.51-1.41h-2.22c-.14.39-.3.82-.42,1.19-.24.71,0,.79.87.88v.37h-2.66v-.37c.69-.09.87-.18,1.25-1.12l2.28-5.72.47-.09c.7,1.9,1.45,3.9,2.16,5.76.39,1,.49,1.08,1.22,1.17v.37Zm-1-5.47c-.33.85-.66,1.68-.95,2.51h1.86Z"/><path class="cls-2" d="M116.7,45.52l-.35,0c-1.19-.06-1.61-.32-2-.86a20.32,20.32,0,0,1-1.14-1.9c-.19-.31-.34-.38-.76-.38h-.28V44c0,.91.11,1,1,1.07v.37h-3.22v-.37c.86-.09,1-.16,1-1.07V39.73c0-.9-.12-1-1-1.06v-.38H113a3.25,3.25,0,0,1,1.91.41,1.67,1.67,0,0,1,.74,1.46A2,2,0,0,1,114.24,42c.17.33.62,1.05,1,1.56a9.43,9.43,0,0,0,.85,1.14,1.46,1.46,0,0,0,.73.49Zm-4.14-3.59a1.65,1.65,0,0,0,1.12-.3,1.55,1.55,0,0,0,.55-1.31,1.39,1.39,0,0,0-1.41-1.59c-.3,0-.46,0-.53.11s-.11.19-.11.44v2.65Z"/><path class="cls-2" d="M124.4,42.43c-.64.11-.71.16-.71.87v.88a5.71,5.71,0,0,0,.07,1.06,15.42,15.42,0,0,1-2.61.37c-2.55,0-4.05-1.57-4.05-3.76,0-2.42,2-3.71,4.26-3.71a14.81,14.81,0,0,1,2.25.26c0,.46.1,1.24.18,1.87l-.4.08a2,2,0,0,0-1.32-1.62,3.39,3.39,0,0,0-1-.13c-1.45,0-2.48,1.15-2.48,3.09s.76,3.47,2.67,3.47a1.67,1.67,0,0,0,.79-.17c.19-.11.3-.27.3-.65V43.4c0-.79-.14-.87-1.11-1v-.37h3.13Z"/><path class="cls-2" d="M131.14,43.62c-.06.29-.37,1.51-.47,1.82h-5.58v-.36c1-.09,1.08-.16,1.08-1.08V39.75c0-1-.13-1-.91-1.08v-.38h3.5c1.12,0,1.52,0,1.66,0,0,.23.07,1.1.11,1.75l-.39,0a2.8,2.8,0,0,0-.43-1c-.19-.27-.37-.34-1-.34h-.83c-.4,0-.43,0-.43.38V41.5h1.13c.69,0,.78-.16.93-.93h.4V43h-.4c-.17-.81-.25-.93-1-.93h-1.11v2c0,.76.1.94.73.95h.87c.63,0,.78-.09,1-.38a5,5,0,0,0,.65-1.07Z"/><path class="cls-2" d="M139.47,38.67c-.69.08-.9.21-.94.71s-.05.81-.05,1.79v4.39h-.55L133.3,40v2.58c0,1,0,1.42.06,1.74,0,.51.28.73,1.09.78v.37h-2.71v-.37c.64,0,.92-.22,1-.74a15.82,15.82,0,0,0,.07-1.79V39.87a1.22,1.22,0,0,0-.23-.84c-.2-.27-.46-.32-.94-.36v-.38h2l4.36,5.11V41.17c0-1,0-1.38-.05-1.76s-.24-.69-1.14-.74v-.38h2.72Z"/><path class="cls-2" d="M146.33,40.14a3.69,3.69,0,0,0-.43-1c-.19-.26-.29-.34-.92-.34h-.85V44c0,.9.11,1,1.11,1.06v.37h-3.5v-.37c1-.07,1.07-.15,1.07-1.06V38.78H142c-.61,0-.79.08-1,.37a4,4,0,0,0-.42,1h-.39c.07-.75.15-1.55.17-2.11h.31c.16.25.29.26.61.26h4.39a.65.65,0,0,0,.61-.26h.3c0,.48,0,1.38.1,2.07Z"/><path class="cls-2" d="M147.53,45.44v-.37c.86-.08.95-.14.95-1.07V39.75c0-.93-.1-1-.95-1.08v-.38h3.24v.38c-.85.08-1,.15-1,1.08V44c0,.93.1,1,1,1.07v.37Z"/><path class="cls-2" d="M159.41,38.67c-.68.08-.9.21-.93.71s-.06.81-.06,1.79v4.39h-.54L153.25,40v2.58c0,1,0,1.42.05,1.74,0,.51.28.73,1.09.78v.37h-2.71v-.37c.65,0,.92-.22,1-.74a16.69,16.69,0,0,0,.06-1.79V39.87a1.17,1.17,0,0,0-.23-.84c-.2-.27-.45-.32-.94-.36v-.38h2l4.36,5.11V41.17c0-1,0-1.38,0-1.76s-.24-.69-1.14-.74v-.38h2.72Z"/><path class="cls-2" d="M163.81,45.44v-.37c.7-.09.73-.21.58-.66s-.32-.88-.5-1.41h-2.23c-.14.39-.3.82-.42,1.19-.24.71,0,.79.87.88v.37h-2.66v-.37c.7-.09.87-.18,1.25-1.12L163,38.23l.47-.09c.7,1.9,1.45,3.9,2.16,5.76.39,1,.49,1.08,1.22,1.17v.37Zm-1-5.47c-.33.85-.66,1.68-.95,2.51h1.86Z"/></svg>