<?xml version="1.0" encoding="iso-8859-1"?>
<!-- Generator: Adobe Illustrator 19.0.0, SVG Export Plug-In . SVG Version: 6.00 Build 0)  -->
<svg version="1.1" id="Capa_1" xmlns="http://www.w3.org/2000/svg" xmlns:xlink="http://www.w3.org/1999/xlink" x="0px" y="0px"
	 viewBox="0 0 60 60" style="enable-background:new 0 0 60 60;" xml:space="preserve">
<g>
	<g>
		<circle cx="28" cy="25.5" r="1"/>
		<circle cx="28" cy="28.5" r="1"/>
		<circle cx="28" cy="31.5" r="1"/>
		<circle cx="28" cy="16.5" r="1"/>
		<circle cx="25" cy="18.5" r="1"/>
		<circle cx="25" cy="22.5" r="1"/>
		<circle cx="56" cy="18.5" r="1"/>
		<circle cx="56" cy="25.5" r="1"/>
		<circle cx="19" cy="39.5" r="1"/>
		<circle cx="16" cy="39.5" r="1"/>
		<circle cx="13" cy="39.5" r="1"/>
		<circle cx="4" cy="27.5" r="1"/>
		<circle cx="4" cy="30.5" r="1"/>
		<circle cx="4" cy="33.5" r="1"/>
		<circle cx="28" cy="19.5" r="1"/>
		<circle cx="28" cy="22.5" r="1"/>
		<path d="M57,6.5v-1c0-0.553-0.447-1-1-1s-1,0.447-1,1v1h-1v-3h-4h-2h-2h-2h-2h-2h-2h-2h-4v3h-1v-1c0-0.553-0.448-1-1-1
			s-1,0.447-1,1v1h-1v-1c0-0.553-0.448-1-1-1s-1,0.447-1,1v1h-4h-6h-2H8H0v50h60v-50H57z M50,5.5h2v1h-2V5.5z M46,5.5h2v1h-2V5.5z
			 M42,5.5h2v1h-2V5.5z M38,5.5h2v1h-2V5.5z M34,5.5h2v1h-2V5.5z M20,8.5v21h-2v-21H20z M12,8.5v15h-2v-15H12z M58,54.5H2v-1h2
			c0.552,0,1-0.447,1-1s-0.448-1-1-1H2v-1h2c0.552,0,1-0.447,1-1s-0.448-1-1-1H2v-1h2c0.552,0,1-0.447,1-1s-0.448-1-1-1H2v-1h2
			c0.552,0,1-0.447,1-1s-0.448-1-1-1H2v-1h2c0.552,0,1-0.447,1-1s-0.448-1-1-1H2v-20h2c0.552,0,1-0.447,1-1s-0.448-1-1-1H2v-1h2
			c0.552,0,1-0.447,1-1s-0.448-1-1-1H2v-1h2c0.552,0,1-0.447,1-1s-0.448-1-1-1H2v-3h6v17h2v1c0,0.553,0.448,1,1,1s1-0.447,1-1v-1h2
			v-17h2v23h2v1c0,0.553,0.448,1,1,1s1-0.447,1-1v-1h2v-23h10h4h2h2h2h2h2h2h2h4h4V54.5z"/>
		<path d="M37,27.5h2v2h2v-2h1v2h2v-2h1v2h2v-2h2v-2h2v-2h-2v-1h2v-2h-2v-1h2v-2h-2v-2h-2v-2h-2v2h-1v-2h-2v2h-1v-2h-2v2h-2v2h-2v2
			h2v1h-2v2h2v1h-2v2h2V27.5z M39,17.5h8v8h-8V17.5z"/>
		<path d="M34.709,32.5h16.582c1.494,0,2.709-1.215,2.709-2.709V13.209c0-1.494-1.215-2.709-2.709-2.709H34.709
			C33.215,10.5,32,11.715,32,13.209v16.582C32,31.285,33.215,32.5,34.709,32.5z M34,13.209c0-0.391,0.318-0.709,0.709-0.709h16.582
			c0.391,0,0.709,0.318,0.709,0.709v16.582c0,0.391-0.318,0.709-0.709,0.709H34.709C34.318,30.5,34,30.182,34,29.791V13.209z"/>
		<path d="M55,38.5c0.553,0,1-0.447,1-1s-0.447-1-1-1h-1v-2H26v2h-1c-0.552,0-1,0.447-1,1s0.448,1,1,1h1v2h-1c-0.552,0-1,0.447-1,1
			s0.448,1,1,1h1v2h-1c-0.552,0-1,0.447-1,1s0.448,1,1,1h1v2h-1c-0.552,0-1,0.447-1,1s0.448,1,1,1h1v2h28v-2h1c0.553,0,1-0.447,1-1
			s-0.447-1-1-1h-1v-2h1c0.553,0,1-0.447,1-1s-0.447-1-1-1h-1v-2h1c0.553,0,1-0.447,1-1s-0.447-1-1-1h-1v-2H55z M52,38.5h-1v-2h1
			V38.5z M52,42.5h-1v-2h1V42.5z M52,46.5h-1v-2h1V46.5z M31,46.5v-2h18v2H31z M49,48.5v2H31v-2H49z M28,44.5h1v2h-1V44.5z M28,40.5
			h1v2h-1V40.5z M49,40.5v2H31v-2H49z M31,38.5v-2h18v2H31z M28,36.5h1v2h-1V36.5z M28,48.5h1v2h-1V48.5z M52,50.5h-1v-2h1V50.5z"/>
		<path d="M21,46.5c0.552,0,1-0.447,1-1s-0.448-1-1-1h-1v-2h-8v2h-1c-0.552,0-1,0.447-1,1s0.448,1,1,1h1v1h-1c-0.552,0-1,0.447-1,1
			s0.448,1,1,1h1v2h8v-2h1c0.552,0,1-0.447,1-1s-0.448-1-1-1h-1v-1H21z M18,49.5h-4v-5h4V49.5z"/>
		<path d="M14,29.5H7v7h7V29.5z M12,34.5H9v-3h3V34.5z"/>
	</g>
</g>
<g>
</g>
<g>
</g>
<g>
</g>
<g>
</g>
<g>
</g>
<g>
</g>
<g>
</g>
<g>
</g>
<g>
</g>
<g>
</g>
<g>
</g>
<g>
</g>
<g>
</g>
<g>
</g>
<g>
</g>
</svg>
