<svg height="512pt" viewBox="0 -48 512 512" width="512pt" xmlns="http://www.w3.org/2000/svg"><path d="m496 160h-2.046875l-46.289063-154.296875c-1.015624-3.382813-4.136718-5.703125-7.664062-5.703125h-368c-3.527344 0-6.648438 2.320312-7.664062 5.703125l-46.289063 154.296875h-2.046875c-8.824219 0-16 7.175781-16 16v224c0 8.824219 7.175781 16 16 16h480c8.824219 0 16-7.175781 16-16v-224c0-8.824219-7.175781-16-16-16zm-418.046875-144h356.09375l43.199219 144h-442.492188zm-61.953125 384v-224h480l.007812 224zm0 0"/><path d="m173.65625 194.34375c-1.496094-1.503906-3.527344-2.34375-5.65625-2.34375h-80c-2.128906 0-4.160156.839844-5.65625 2.34375l-48 48c-1.503906 1.496094-2.34375 3.535156-2.34375 5.65625v80c0 2.121094.839844 4.160156 2.34375 5.65625l48 48c1.496094 1.503906 3.527344 2.34375 5.65625 2.34375h80c2.128906 0 4.160156-.839844 5.65625-2.34375l48-48c1.503906-1.496094 2.34375-3.535156 2.34375-5.65625v-80c0-2.121094-.839844-4.160156-2.34375-5.65625zm34.34375 56.96875v28.6875h-16v-17.457031c0-2.117188-.839844-4.160157-2.34375-5.65625l-30.542969-30.542969c-1.503906-1.503906-3.539062-2.34375-5.65625-2.34375h-17.457031v-16h28.6875zm-128 44.6875h17.136719c2.910156 11.191406 11.671875 19.953125 22.863281 22.863281v17.136719h-14.144531l-25.855469-25.855469zm48 8c-8.824219 0-16-7.175781-16-16s7.175781-16 16-16 16 7.175781 16 16-7.175781 16-16 16zm-8-46.863281c-11.191406 2.910156-19.953125 11.671875-22.863281 22.863281h-17.136719v-14.144531l25.855469-25.855469h14.144531zm16 61.726562c11.191406-2.910156 19.953125-11.671875 22.863281-22.863281h17.136719v14.144531l-25.855469 25.855469h-14.144531zm22.863281-38.863281c-2.910156-11.191406-11.671875-19.953125-22.863281-22.863281v-17.136719h14.144531l25.855469 25.855469v14.144531zm-67.550781-72h28.6875v16h-17.457031c-2.128907 0-4.160157.839844-5.65625 2.34375l-30.542969 30.542969c-1.503906 1.503906-2.34375 3.539062-2.34375 5.65625v17.457031h-16v-28.6875zm-43.3125 116.6875v-28.6875h16v17.457031c0 2.117188.839844 4.160157 2.34375 5.65625l30.542969 30.542969c1.503906 1.503906 3.539062 2.34375 5.65625 2.34375h17.457031v16h-28.6875zm116.6875 43.3125h-28.6875v-16h17.457031c2.128907 0 4.160157-.839844 5.65625-2.34375l30.542969-30.542969c1.503906-1.503906 2.34375-3.539062 2.34375-5.65625v-17.457031h16v28.6875zm0 0"/><path d="m32 192h16v16h-16zm0 0"/><path d="m32 368h16v16h-16zm0 0"/><path d="m350.65625 307.558594c-1.488281-2.222656-3.984375-3.558594-6.65625-3.558594h-80c-2.671875 0-5.167969 1.335938-6.65625 3.558594l-16 24c-.871094 1.3125-1.34375 2.867187-1.34375 4.441406v40c0 4.414062 3.574219 8 8 8h112c4.425781 0 8-3.585938 8-8v-40c0-1.574219-.472656-3.128906-1.34375-4.441406zm1.34375 60.441406h-96v-29.574219l12.28125-18.425781h71.4375l12.28125 18.425781zm0 0"/><path d="m272 336h24v16h-24zm0 0"/><path d="m312 336h24v16h-24zm0 0"/><path d="m432 192h-176c-8.824219 0-16 7.175781-16 16v64c0 8.824219 7.175781 16 16 16h176c8.824219 0 16-7.175781 16-16v-64c0-8.824219-7.175781-16-16-16zm-176 16h16v64h-16zm32 0h16v64h-16zm32 0h16v64h-16zm32 0h16v64h-16zm32 0h16v64h-16zm32 64v-64h16l.007812 64zm0 0"/><path d="m464 192h16v16h-16zm0 0"/><path d="m464 368h16v16h-16zm0 0"/><path d="m437.65625 322.34375c-1.496094-1.503906-3.527344-2.34375-5.65625-2.34375h-32c-2.128906 0-4.160156.839844-5.65625 2.34375l-8 8c-1.503906 1.503906-2.34375 3.535156-2.34375 5.65625v24c0 4.414062 3.574219 8 8 8h48c4.425781 0 8-3.585938 8-8v-24c0-2.121094-.839844-4.160156-2.34375-5.65625zm-5.65625 29.65625h-32v-12.679688l3.3125-3.320312h25.375l3.3125 3.320312zm0 0"/><path d="m88 32h16v16h-16zm0 0"/><path d="m408 32h16v16h-16zm0 0"/><path d="m368 56h-216c-3.449219 0-6.496094 2.199219-7.585938 5.472656l-16 48c-.820312 2.4375-.40625 5.121094 1.097657 7.207032 1.503906 2.089843 3.921875 3.320312 6.488281 3.320312h184v-16h-172.894531l10.664062-32h203.460938l5.328125 32h-30.558594v16h40c2.351562 0 4.585938-1.03125 6.105469-2.832031s2.175781-4.167969 1.789062-6.488281l-8-48c-.648437-3.847657-3.984375-6.679688-7.894531-6.679688zm0 0"/></svg>