<?xml version="1.0" encoding="iso-8859-1"?>
<!-- Generator: Adobe Illustrator 19.0.0, SVG Export Plug-In . SVG Version: 6.00 Build 0)  -->
<svg version="1.1" id="Capa_1" xmlns="http://www.w3.org/2000/svg" xmlns:xlink="http://www.w3.org/1999/xlink" x="0px" y="0px"
	 viewBox="0 0 60 60" style="enable-background:new 0 0 60 60;" xml:space="preserve">
<g>
	<g>
		<circle cx="7" cy="16" r="1"/>
		<circle cx="7" cy="42" r="1"/>
		<circle cx="56" cy="16" r="1"/>
		<circle cx="56" cy="42" r="1"/>
		<path d="M60,12H5V9c0-0.553-0.447-1-1-1H1C0.447,8,0,8.447,0,9s0.447,1,1,1h2v2v3H0v6h3v3H2c-0.553,0-1,0.447-1,1s0.447,1,1,1h1v1
			H0v15h3v1H2c-0.553,0-1,0.447-1,1s0.447,1,1,1h1v1v5c0,0.553,0.447,1,1,1s1-0.447,1-1v-5h6v4h26v-4h23V12z M2,19v-2h1v2H2z M2,40
			V29h1v11H2z M35,48h-1v-1h-2v1h-1v-1h-2v1h-1v-1h-2v1h-1v-1h-2v1h-1v-1h-2v1h-1v-1h-2v1h-1v-1h-2v1h-1v-2h22V48z M58,44H37H11H5
			v-2V27v-6v-6v-1h53V44z"/>
		<path d="M17,43h12.796l-2.095-1.765c-0.91-0.767-1.755-1.668-2.512-2.68l-0.045-0.057c-1.675-1.933-2.76-4.708-3.063-7.887
			C22.026,29.998,22,29.486,22,29s0.026-0.998,0.089-1.684c0.296-3.107,1.381-5.883,3.101-7.872c0.757-1.012,1.602-1.913,2.512-2.68
			L29.796,15H17c-5.514,0-10,6.28-10,14S11.486,43,17,43z M17,17h7.604c-0.342,0.385-0.667,0.783-0.971,1.19
			c-1.945,2.245-3.2,5.419-3.543,9.016C20.028,27.882,20,28.452,20,29s0.028,1.118,0.099,1.873c0.333,3.503,1.579,6.665,3.511,8.908
			c0.317,0.424,0.65,0.83,0.995,1.219H17c-4.411,0-8-5.383-8-12S12.589,17,17,17z"/>
		<path d="M25,29c0,6.084,3.809,11.682,9.477,13.93L34.654,43h10.691l0.178-0.07C51.191,40.682,55,35.084,55,29
			s-3.809-11.682-9.477-13.93L45.346,15H34.654l-0.178,0.07C28.809,17.318,25,22.916,25,29z M35.04,17h9.92
			C49.776,18.993,53,23.791,53,29s-3.224,10.007-8.04,12h-9.92C30.224,39.007,27,34.209,27,29S30.224,18.993,35.04,17z"/>
		<path d="M29.523,29.107c0.442,0.407,1.074,0.543,1.649,0.358c0.722-0.232,1.725-0.339,2.793-0.173
			c-1.337,0.914-2.885,2.171-3.833,3.591l-0.295,0.442l0.201,0.492c0.585,1.428,2.311,3.093,3.655,4.238
			c0.304,0.26,0.675,0.395,1.055,0.395c0.189,0,0.381-0.034,0.568-0.103c0.563-0.208,0.973-0.709,1.068-1.307
			c0.098-0.609,0.357-1.349,0.789-2.076c0.13,1.469,0.424,3.123,1.054,4.458l0.227,0.48l0.525,0.081
			c0.227,0.035,0.471,0.051,0.728,0.051c1.471,0,3.362-0.521,4.789-1c0.567-0.19,0.974-0.654,1.085-1.24
			c0.113-0.59-0.105-1.199-0.569-1.591c-0.439-0.37-0.901-0.919-1.286-1.591c1.275,0.633,2.757,1.214,4.156,1.379l0.528,0.063
			l0.347-0.403c1.005-1.167,1.707-3.461,2.118-5.181v-0.001c0.139-0.583-0.039-1.173-0.478-1.578
			c-0.44-0.407-1.072-0.544-1.65-0.358c-0.72,0.234-1.724,0.34-2.793,0.174c1.337-0.915,2.885-2.171,3.833-3.592l0.295-0.442
			l-0.201-0.492c-0.583-1.426-2.31-3.092-3.655-4.238c-0.455-0.39-1.059-0.5-1.621-0.293c-0.563,0.208-0.974,0.708-1.07,1.309
			c-0.098,0.609-0.357,1.349-0.789,2.076c-0.13-1.469-0.423-3.124-1.053-4.459l-0.227-0.48l-0.525-0.081
			c-1.531-0.235-3.842,0.388-5.517,0.949c-0.567,0.19-0.974,0.653-1.086,1.239c-0.112,0.59,0.106,1.2,0.57,1.592
			c0.438,0.369,0.9,0.919,1.286,1.591c-1.275-0.633-2.757-1.214-4.156-1.379l-0.528-0.063l-0.347,0.403
			c-1.005,1.167-1.707,3.461-2.118,5.181v0.001C28.906,28.112,29.086,28.703,29.523,29.107z M41.741,28.036
			c0.184,0.356,0.263,0.769,0.209,1.187l-0.047,0.361c-0.006,0.021-0.012,0.042-0.02,0.063c-0.196,0.559-0.634,1.021-1.218,1.228
			l-0.08,0.029C40.399,30.96,40.205,31,40,31c-1.103,0-2-0.897-2-2s0.897-2,2-2c0.1,0,0.196,0.015,0.292,0.03
			c0.08,0.015,0.161,0.026,0.239,0.051c0.05,0.014,0.099,0.028,0.147,0.046c0.175,0.071,0.345,0.161,0.498,0.283l0.26,0.206
			c0.114,0.125,0.22,0.259,0.299,0.408C41.737,28.028,41.739,28.032,41.741,28.036z M34.534,36.137
			c-1.105-0.985-1.951-1.908-2.395-2.608c1.086-1.351,2.823-2.541,4.008-3.262c0.189,0.587,0.519,1.121,0.95,1.563
			c-0.001,0.037-0.002,0.079-0.004,0.12C35.689,33.207,34.873,34.815,34.534,36.137z M43.284,37.327
			c-1.432,0.446-2.643,0.694-3.469,0.711c-0.596-1.618-0.724-3.706-0.733-5.094c0.009-0.006,0.019-0.012,0.028-0.019
			c0.573,0.13,1.165,0.128,1.735,0.003c0.055,0.037,0.12,0.08,0.184,0.123C41.395,34.87,42.34,36.371,43.284,37.327z M48.783,30.595
			c-0.38,1.45-0.812,2.608-1.235,3.318c-1.664-0.348-3.472-1.322-4.655-2.047c-0.002-0.037-0.004-0.075-0.005-0.113
			c0.189-0.198,0.353-0.415,0.499-0.648c0.03-0.047,0.052-0.098,0.08-0.147c0.118-0.207,0.217-0.424,0.296-0.652
			c0.014-0.041,0.041-0.077,0.054-0.118C45.597,30.9,47.436,30.896,48.783,30.595z M45.387,21.863
			c1.106,0.986,1.952,1.909,2.395,2.607c-1.086,1.35-2.822,2.541-4.006,3.262c-0.097-0.288-0.22-0.563-0.377-0.817
			c-0.015-0.025-0.026-0.051-0.041-0.075c-0.156-0.242-0.331-0.469-0.534-0.671c0.001-0.036,0.003-0.078,0.004-0.118
			C44.233,24.794,45.049,23.184,45.387,21.863z M36.638,20.674c1.415-0.44,2.643-0.69,3.47-0.71
			c0.594,1.617,0.722,3.704,0.731,5.092c-0.009,0.006-0.018,0.012-0.027,0.018c-0.57-0.13-1.163-0.128-1.736-0.004
			c-0.055-0.037-0.12-0.08-0.183-0.123C38.527,23.131,37.583,21.63,36.638,20.674z M32.374,24.087
			c1.663,0.348,3.471,1.321,4.654,2.045c0.003,0.043,0.004,0.087,0.006,0.13c-0.42,0.441-0.745,0.966-0.928,1.548
			c-1.075-0.429-2.17-0.598-3.166-0.598c-0.654,0-1.266,0.072-1.801,0.192C31.519,25.955,31.95,24.797,32.374,24.087z"/>
	</g>
</g>
<g>
</g>
<g>
</g>
<g>
</g>
<g>
</g>
<g>
</g>
<g>
</g>
<g>
</g>
<g>
</g>
<g>
</g>
<g>
</g>
<g>
</g>
<g>
</g>
<g>
</g>
<g>
</g>
<g>
</g>
</svg>
